<svg width="40" height="40" viewBox="0 0 40 40" fill="none" xmlns="http://www.w3.org/2000/svg">
<path d="M31.6665 23.3333C35.3484 23.3333 38.3332 26.6667 38.3332 29.1667C38.3332 30.5474 37.2139 31.6667 35.8332 31.6667H34.9998M28.3332 18.3333C31.0946 18.3333 33.3332 16.0948 33.3332 13.3333C33.3332 10.5719 31.0946 8.33333 28.3332 8.33333M8.33317 23.3333C4.65127 23.3333 1.6665 26.6667 1.6665 29.1667C1.6665 30.5474 2.78579 31.6667 4.1665 31.6667H4.99984M11.6665 18.3333C8.90508 18.3333 6.6665 16.0948 6.6665 13.3333C6.6665 10.5719 8.90508 8.33333 11.6665 8.33333M27.4998 31.6667H12.4998C11.1191 31.6667 9.99984 30.5474 9.99984 29.1667C9.99984 25 14.9998 23.3333 19.9998 23.3333C24.9998 23.3333 29.9998 25 29.9998 29.1667C29.9998 30.5474 28.8805 31.6667 27.4998 31.6667ZM24.9998 13.3333C24.9998 16.0948 22.7613 18.3333 19.9998 18.3333C17.2384 18.3333 14.9998 16.0948 14.9998 13.3333C14.9998 10.5719 17.2384 8.33333 19.9998 8.33333C22.7613 8.33333 24.9998 10.5719 24.9998 13.3333Z" stroke="white" stroke-width="1.5" stroke-linecap="round" stroke-linejoin="round"/>
</svg>
