<svg width="173" height="56" viewBox="0 0 173 56" fill="none" xmlns="http://www.w3.org/2000/svg">
<path d="M38.6668 34.6667V28M32.0002 34.6667V21.3333M25.3335 34.6667V31.3333M17.8335 28C17.8335 17.1667 21.1668 13.8333 32.0002 13.8333C42.8335 13.8333 46.1668 17.1667 46.1668 28C46.1668 38.8333 42.8335 42.1667 32.0002 42.1667C21.1668 42.1667 17.8335 38.8333 17.8335 28Z" stroke="#002B6A" stroke-width="3" stroke-linecap="round" stroke-linejoin="round"/>
<path d="M69.6055 34.5H66.5391L66.5586 32.3906H69.6055C70.4323 32.3906 71.1257 32.2083 71.6855 31.8438C72.2454 31.4727 72.6686 30.9421 72.9551 30.252C73.2415 29.5553 73.3848 28.722 73.3848 27.752V27.0195C73.3848 26.2708 73.3034 25.61 73.1406 25.0371C72.9779 24.4642 72.737 23.9824 72.418 23.5918C72.1055 23.2012 71.7181 22.9049 71.2559 22.7031C70.7936 22.5013 70.263 22.4004 69.6641 22.4004H66.4805V20.2812H69.6641C70.6146 20.2812 71.4805 20.4408 72.2617 20.7598C73.0495 21.0788 73.7298 21.5378 74.3027 22.1367C74.8822 22.7292 75.3249 23.4388 75.6309 24.2656C75.9434 25.0924 76.0996 26.0169 76.0996 27.0391V27.752C76.0996 28.7676 75.9434 29.6921 75.6309 30.5254C75.3249 31.3522 74.8822 32.0618 74.3027 32.6543C73.7298 33.2467 73.0462 33.7025 72.252 34.0215C71.4577 34.3405 70.5755 34.5 69.6055 34.5ZM68.043 20.2812V34.5H65.3574V20.2812H68.043ZM84.0098 32.2539V27.3809C84.0098 27.0228 83.9479 26.7135 83.8242 26.4531C83.7005 26.1927 83.5117 25.9909 83.2578 25.8477C83.0039 25.7044 82.6816 25.6328 82.291 25.6328C81.946 25.6328 81.6432 25.6914 81.3828 25.8086C81.1289 25.9258 80.9336 26.0918 80.7969 26.3066C80.6602 26.515 80.5918 26.7559 80.5918 27.0293H78.0039C78.0039 26.5931 78.1081 26.1797 78.3164 25.7891C78.5247 25.3919 78.821 25.0404 79.2051 24.7344C79.5957 24.4219 80.0612 24.1777 80.6016 24.002C81.1484 23.8262 81.7604 23.7383 82.4375 23.7383C83.2383 23.7383 83.9512 23.875 84.5762 24.1484C85.2077 24.4154 85.7025 24.819 86.0605 25.3594C86.4251 25.8997 86.6074 26.5801 86.6074 27.4004V32.0098C86.6074 32.5371 86.64 32.9896 86.7051 33.3672C86.7767 33.7383 86.8809 34.0605 87.0176 34.334V34.5H84.3906C84.2669 34.2331 84.1725 33.8945 84.1074 33.4844C84.0423 33.0677 84.0098 32.6576 84.0098 32.2539ZM84.3711 28.0645L84.3906 29.5977H82.7598C82.3561 29.5977 82.0013 29.64 81.6953 29.7246C81.3893 29.8027 81.1387 29.9199 80.9434 30.0762C80.748 30.2259 80.6016 30.4082 80.5039 30.623C80.4062 30.8314 80.3574 31.069 80.3574 31.3359C80.3574 31.5964 80.416 31.8307 80.5332 32.0391C80.6569 32.2474 80.8327 32.4134 81.0605 32.5371C81.2949 32.6543 81.5684 32.7129 81.8809 32.7129C82.3366 32.7129 82.7337 32.6217 83.0723 32.4395C83.4108 32.2507 83.6745 32.0228 83.8633 31.7559C84.0521 31.4889 84.153 31.235 84.166 30.9941L84.9082 32.1074C84.8171 32.3743 84.6803 32.6576 84.498 32.957C84.3158 33.2565 84.0814 33.5365 83.7949 33.7969C83.5085 34.0573 83.1634 34.2721 82.7598 34.4414C82.3561 34.6107 81.8874 34.6953 81.3535 34.6953C80.6699 34.6953 80.0579 34.5586 79.5176 34.2852C78.9772 34.0117 78.5508 33.6374 78.2383 33.1621C77.9258 32.6868 77.7695 32.1465 77.7695 31.541C77.7695 30.9811 77.8737 30.4863 78.082 30.0566C78.2904 29.627 78.5996 29.2656 79.0098 28.9727C79.4199 28.6732 79.9277 28.4486 80.5332 28.2988C81.1452 28.1426 81.8451 28.0645 82.6328 28.0645H84.3711ZM94.7422 31.6094C94.7422 31.388 94.6836 31.1895 94.5664 31.0137C94.4492 30.8379 94.2279 30.6784 93.9023 30.5352C93.5833 30.3854 93.1146 30.2454 92.4961 30.1152C91.9492 29.998 91.4447 29.8516 90.9824 29.6758C90.5202 29.5 90.123 29.2884 89.791 29.041C89.459 28.7871 89.1986 28.4909 89.0098 28.1523C88.8275 27.8073 88.7363 27.4102 88.7363 26.9609C88.7363 26.5247 88.8307 26.1146 89.0195 25.7305C89.2083 25.3398 89.4818 24.998 89.8398 24.7051C90.1979 24.4056 90.6341 24.1712 91.1484 24.002C91.6628 23.8262 92.2422 23.7383 92.8867 23.7383C93.7852 23.7383 94.5566 23.8848 95.2012 24.1777C95.8522 24.4707 96.3503 24.8743 96.6953 25.3887C97.0404 25.8965 97.2129 26.4694 97.2129 27.1074H94.6348C94.6348 26.8275 94.5697 26.5736 94.4395 26.3457C94.3158 26.1178 94.1237 25.9355 93.8633 25.7988C93.6029 25.6556 93.2741 25.584 92.877 25.584C92.5189 25.584 92.2161 25.6426 91.9688 25.7598C91.7279 25.877 91.5456 26.0299 91.4219 26.2188C91.2982 26.4076 91.2363 26.6159 91.2363 26.8438C91.2363 27.013 91.2689 27.166 91.334 27.3027C91.4056 27.4329 91.5195 27.5534 91.6758 27.6641C91.832 27.7747 92.0436 27.8757 92.3105 27.9668C92.584 28.0579 92.9193 28.1458 93.3164 28.2305C94.1042 28.3867 94.791 28.5951 95.377 28.8555C95.9694 29.1094 96.4316 29.4479 96.7637 29.8711C97.0957 30.2943 97.2617 30.8346 97.2617 31.4922C97.2617 31.9609 97.1608 32.3906 96.959 32.7812C96.7572 33.1654 96.4642 33.5007 96.0801 33.7871C95.696 34.0736 95.237 34.2982 94.7031 34.4609C94.1693 34.6172 93.5671 34.6953 92.8965 34.6953C91.9264 34.6953 91.1061 34.5228 90.4355 34.1777C89.765 33.8262 89.2572 33.3835 88.9121 32.8496C88.5671 32.3092 88.3945 31.7493 88.3945 31.1699H90.8652C90.8848 31.5801 90.9954 31.9089 91.1973 32.1562C91.3991 32.4036 91.653 32.5827 91.959 32.6934C92.2715 32.7975 92.6003 32.8496 92.9453 32.8496C93.3359 32.8496 93.6647 32.7975 93.9316 32.6934C94.1986 32.5827 94.4004 32.4362 94.5371 32.2539C94.6738 32.0651 94.7422 31.8503 94.7422 31.6094ZM101.754 19.5V34.5H99.166V19.5H101.754ZM101.344 28.8359H100.582C100.582 28.1003 100.68 27.4232 100.875 26.8047C101.07 26.1862 101.347 25.6491 101.705 25.1934C102.063 24.7311 102.49 24.373 102.984 24.1191C103.486 23.8652 104.039 23.7383 104.645 23.7383C105.165 23.7383 105.637 23.8132 106.061 23.9629C106.49 24.1061 106.858 24.3372 107.164 24.6562C107.47 24.9753 107.704 25.3919 107.867 25.9062C108.036 26.4141 108.121 27.0326 108.121 27.7617V34.5H105.523V27.7422C105.523 27.2539 105.452 26.8698 105.309 26.5898C105.165 26.3034 104.96 26.0983 104.693 25.9746C104.433 25.8509 104.111 25.7891 103.727 25.7891C103.31 25.7891 102.952 25.8704 102.652 26.0332C102.353 26.1895 102.105 26.4076 101.91 26.6875C101.721 26.9674 101.578 27.2897 101.48 27.6543C101.389 28.0189 101.344 28.4128 101.344 28.8359ZM110.387 19.5H112.975V32.166L112.721 34.5H110.387V19.5ZM119.771 29.1094V29.3145C119.771 30.1022 119.684 30.8249 119.508 31.4824C119.339 32.14 119.081 32.7096 118.736 33.1914C118.391 33.6667 117.962 34.0378 117.447 34.3047C116.939 34.5651 116.344 34.6953 115.66 34.6953C115.009 34.6953 114.443 34.5684 113.961 34.3145C113.486 34.0605 113.085 33.7025 112.76 33.2402C112.434 32.7715 112.174 32.2214 111.979 31.5898C111.783 30.9518 111.637 30.2552 111.539 29.5V28.9434C111.637 28.1816 111.783 27.485 111.979 26.8535C112.174 26.222 112.434 25.6719 112.76 25.2031C113.085 24.7344 113.486 24.373 113.961 24.1191C114.436 23.8652 114.996 23.7383 115.641 23.7383C116.331 23.7383 116.933 23.8717 117.447 24.1387C117.968 24.3991 118.398 24.7702 118.736 25.252C119.081 25.7272 119.339 26.2936 119.508 26.9512C119.684 27.6022 119.771 28.3216 119.771 29.1094ZM117.184 29.3145V29.1094C117.184 28.6602 117.148 28.237 117.076 27.8398C117.005 27.4362 116.887 27.0814 116.725 26.7754C116.562 26.4694 116.34 26.2285 116.061 26.0527C115.781 25.877 115.429 25.7891 115.006 25.7891C114.602 25.7891 114.257 25.8574 113.971 25.9941C113.691 26.1309 113.456 26.3197 113.268 26.5605C113.085 26.8014 112.942 27.0846 112.838 27.4102C112.74 27.7357 112.675 28.0872 112.643 28.4648V29.9883C112.688 30.4896 112.796 30.9421 112.965 31.3457C113.134 31.7428 113.385 32.0586 113.717 32.293C114.055 32.5273 114.492 32.6445 115.025 32.6445C115.442 32.6445 115.79 32.5632 116.07 32.4004C116.35 32.2311 116.572 31.9967 116.734 31.6973C116.897 31.3913 117.011 31.0365 117.076 30.6328C117.148 30.2292 117.184 29.7897 117.184 29.3145ZM121.188 29.3242V29.1191C121.188 28.3444 121.298 27.6315 121.52 26.9805C121.741 26.3229 122.063 25.7533 122.486 25.2715C122.91 24.7897 123.427 24.4154 124.039 24.1484C124.651 23.875 125.348 23.7383 126.129 23.7383C126.923 23.7383 127.626 23.875 128.238 24.1484C128.857 24.4154 129.378 24.7897 129.801 25.2715C130.224 25.7533 130.546 26.3229 130.768 26.9805C130.989 27.6315 131.1 28.3444 131.1 29.1191V29.3242C131.1 30.0924 130.989 30.8053 130.768 31.4629C130.546 32.1139 130.224 32.6836 129.801 33.1719C129.378 33.6536 128.86 34.028 128.248 34.2949C127.636 34.5618 126.936 34.6953 126.148 34.6953C125.367 34.6953 124.667 34.5618 124.049 34.2949C123.43 34.028 122.91 33.6536 122.486 33.1719C122.063 32.6836 121.741 32.1139 121.52 31.4629C121.298 30.8053 121.188 30.0924 121.188 29.3242ZM123.766 29.1191V29.3242C123.766 29.7865 123.811 30.2194 123.902 30.623C123.993 31.0267 124.133 31.3815 124.322 31.6875C124.511 31.9935 124.755 32.2344 125.055 32.4102C125.361 32.5794 125.725 32.6641 126.148 32.6641C126.565 32.6641 126.923 32.5794 127.223 32.4102C127.522 32.2344 127.766 31.9935 127.955 31.6875C128.15 31.3815 128.294 31.0267 128.385 30.623C128.476 30.2194 128.521 29.7865 128.521 29.3242V29.1191C128.521 28.6634 128.476 28.237 128.385 27.8398C128.294 27.4362 128.15 27.0814 127.955 26.7754C127.766 26.4629 127.519 26.2188 127.213 26.043C126.913 25.8607 126.552 25.7695 126.129 25.7695C125.712 25.7695 125.354 25.8607 125.055 26.043C124.755 26.2188 124.511 26.4629 124.322 26.7754C124.133 27.0814 123.993 27.4362 123.902 27.8398C123.811 28.237 123.766 28.6634 123.766 29.1191ZM138.795 32.2539V27.3809C138.795 27.0228 138.733 26.7135 138.609 26.4531C138.486 26.1927 138.297 25.9909 138.043 25.8477C137.789 25.7044 137.467 25.6328 137.076 25.6328C136.731 25.6328 136.428 25.6914 136.168 25.8086C135.914 25.9258 135.719 26.0918 135.582 26.3066C135.445 26.515 135.377 26.7559 135.377 27.0293H132.789C132.789 26.5931 132.893 26.1797 133.102 25.7891C133.31 25.3919 133.606 25.0404 133.99 24.7344C134.381 24.4219 134.846 24.1777 135.387 24.002C135.934 23.8262 136.546 23.7383 137.223 23.7383C138.023 23.7383 138.736 23.875 139.361 24.1484C139.993 24.4154 140.488 24.819 140.846 25.3594C141.21 25.8997 141.393 26.5801 141.393 27.4004V32.0098C141.393 32.5371 141.425 32.9896 141.49 33.3672C141.562 33.7383 141.666 34.0605 141.803 34.334V34.5H139.176C139.052 34.2331 138.958 33.8945 138.893 33.4844C138.827 33.0677 138.795 32.6576 138.795 32.2539ZM139.156 28.0645L139.176 29.5977H137.545C137.141 29.5977 136.786 29.64 136.48 29.7246C136.174 29.8027 135.924 29.9199 135.729 30.0762C135.533 30.2259 135.387 30.4082 135.289 30.623C135.191 30.8314 135.143 31.069 135.143 31.3359C135.143 31.5964 135.201 31.8307 135.318 32.0391C135.442 32.2474 135.618 32.4134 135.846 32.5371C136.08 32.6543 136.354 32.7129 136.666 32.7129C137.122 32.7129 137.519 32.6217 137.857 32.4395C138.196 32.2507 138.46 32.0228 138.648 31.7559C138.837 31.4889 138.938 31.235 138.951 30.9941L139.693 32.1074C139.602 32.3743 139.465 32.6576 139.283 32.957C139.101 33.2565 138.867 33.5365 138.58 33.7969C138.294 34.0573 137.949 34.2721 137.545 34.4414C137.141 34.6107 136.673 34.6953 136.139 34.6953C135.455 34.6953 134.843 34.5586 134.303 34.2852C133.762 34.0117 133.336 33.6374 133.023 33.1621C132.711 32.6868 132.555 32.1465 132.555 31.541C132.555 30.9811 132.659 30.4863 132.867 30.0566C133.076 29.627 133.385 29.2656 133.795 28.9727C134.205 28.6732 134.713 28.4486 135.318 28.2988C135.93 28.1426 136.63 28.0645 137.418 28.0645H139.156ZM146.295 26.0918V34.5H143.717V23.9336H146.158L146.295 26.0918ZM149.508 23.8652L149.469 26.2676C149.326 26.2415 149.163 26.222 148.98 26.209C148.805 26.196 148.639 26.1895 148.482 26.1895C148.085 26.1895 147.737 26.2448 147.438 26.3555C147.138 26.4596 146.887 26.6126 146.686 26.8145C146.49 27.0163 146.34 27.2637 146.236 27.5566C146.132 27.8431 146.074 28.1686 146.061 28.5332L145.504 28.4648C145.504 27.7943 145.572 27.1725 145.709 26.5996C145.846 26.0267 146.044 25.5254 146.305 25.0957C146.565 24.666 146.891 24.334 147.281 24.0996C147.678 23.8587 148.134 23.7383 148.648 23.7383C148.792 23.7383 148.945 23.7513 149.107 23.7773C149.277 23.7969 149.41 23.8262 149.508 23.8652ZM157.066 32.2539V19.5H159.664V34.5H157.32L157.066 32.2539ZM150.279 29.3438V29.1387C150.279 28.3314 150.37 27.599 150.553 26.9414C150.742 26.2773 151.015 25.7077 151.373 25.2324C151.731 24.7572 152.164 24.3893 152.672 24.1289C153.186 23.8685 153.769 23.7383 154.42 23.7383C155.051 23.7383 155.602 23.8652 156.07 24.1191C156.546 24.373 156.949 24.7344 157.281 25.2031C157.62 25.6719 157.89 26.2285 158.092 26.873C158.294 27.5111 158.44 28.2142 158.531 28.9824V29.5391C158.44 30.2878 158.294 30.9746 158.092 31.5996C157.89 32.2246 157.62 32.7715 157.281 33.2402C156.949 33.7025 156.546 34.0605 156.07 34.3145C155.595 34.5684 155.038 34.6953 154.4 34.6953C153.756 34.6953 153.176 34.5618 152.662 34.2949C152.154 34.028 151.721 33.6536 151.363 33.1719C151.012 32.6901 150.742 32.1237 150.553 31.4727C150.37 30.8216 150.279 30.112 150.279 29.3438ZM152.867 29.1387V29.3438C152.867 29.7995 152.906 30.2259 152.984 30.623C153.062 31.0202 153.189 31.3717 153.365 31.6777C153.541 31.9772 153.766 32.2116 154.039 32.3809C154.319 32.5501 154.658 32.6348 155.055 32.6348C155.562 32.6348 155.979 32.5241 156.305 32.3027C156.637 32.0749 156.894 31.7656 157.076 31.375C157.258 30.9779 157.376 30.5319 157.428 30.0371V28.5039C157.402 28.1133 157.333 27.752 157.223 27.4199C157.118 27.0879 156.969 26.8014 156.773 26.5605C156.585 26.3197 156.35 26.1309 156.07 25.9941C155.79 25.8574 155.458 25.7891 155.074 25.7891C154.677 25.7891 154.339 25.877 154.059 26.0527C153.779 26.222 153.551 26.4596 153.375 26.7656C153.199 27.0716 153.069 27.4264 152.984 27.8301C152.906 28.2337 152.867 28.6699 152.867 29.1387Z" fill="#002B6A"/>
</svg>
